<?xml version="1.0" encoding="UTF-8"?>
<!DOCTYPE svg PUBLIC "-//W3C//DTD SVG 1.1//EN" "http://www.w3.org/Graphics/SVG/1.1/DTD/svg11.dtd">
<!-- Creator: CorelDRAW -->
<svg xmlns="http://www.w3.org/2000/svg" xml:space="preserve" width="9.0416mm" height="14.2341mm" style="shape-rendering:geometricPrecision; text-rendering:geometricPrecision; image-rendering:optimizeQuality; fill-rule:evenodd; clip-rule:evenodd"
viewBox="0 0 4.5209 7.11721"
 xmlns:xlink="http://www.w3.org/1999/xlink"
 version="1.1">
 <defs>
  <style type="text/css">
   <![CDATA[
    .fil0 {fill:black}
    .fil1 {fill:red}
   ]]>
  </style>
 </defs>
 <g id="Layer_x0020_1">
  <metadata id="CorelCorpID_0Corel-Layer"/>
  <g id="_30646304">
   <g>
    <g id="wallet">
     <g>
      <path id="_274416472" class="fil0" d="M4.09899 4.92726l-0.0282006 -0.0555512 -0.251356 -5.00011e-005c-0.0483011,-0.331257 -0.107952,-0.576013 -0.112202,-0.592963l-0.0266006 -0.107702 -0.358908 5.00011e-005 -0.407459 -0.850669 -1.47303 0.850669 -1.17758 0 -0.0307007 0.0999022c-0.00965021,0.0309507 -0.232955,0.763967 -0.232955,1.38293 0,0.619264 0.223555,1.33458 0.233255,1.36433l0.0312007 0.0989522 3.41618 5.00011e-005 0.0266006 -0.107402c0.0046501,-0.0192004 0.0762017,-0.312857 0.126053,-0.695065l-0.286256 -5.00011e-005c-0.0303007,0.220405 -0.0669515,0.408259 -0.091002,0.519411l-2.98147 0c-0.0596513,-0.213405 -0.191154,-0.734116 -0.191154,-1.18033 0,-0.44816 0.132303,-0.981422 0.191804,-1.19918l2.98122 -5.00011e-005c0.0198504,0.0935521 0.0491011,0.241555 0.0759517,0.417259l-1.25498 0 -0.0246005 0.0659015c-0.00555012,0.0144003 -0.133603,0.359458 -0.133603,0.654664 0,0.294907 0.128203,0.640064 0.133603,0.654464l0.0246005 0.0659015 1.79354 -5.00011e-005 0.0282006 -0.0554512c0.00540012,-0.0108502 0.134653,-0.269506 0.134653,-0.664665 -0.000400009,-0.395859 -0.129403,-0.654464 -0.134803,-0.665315zm-0.158103 1.18198l-1.52008 0c-0.0349508,-0.107802 -0.0981522,-0.329557 -0.0981522,-0.516861 0,-0.187554 0.0633514,-0.409409 0.0981522,-0.517361l1.52008 0c0.0328007,0.0876019 0.088902,0.272906 0.088902,0.517361 0,0.243805 -0.0561012,0.429309 -0.088902,0.516861z"/>
      <circle id="_274416448" class="fil0" cx="2.85953" cy="5.59215" r="0.269053"/>
     </g>
    </g>
   </g>
   <g>
   </g>
   <g>
   </g>
   <g>
   </g>
   <g>
   </g>
   <g>
   </g>
   <g>
   </g>
   <g>
   </g>
   <g>
   </g>
   <g>
   </g>
   <g>
   </g>
   <g>
   </g>
   <g>
   </g>
   <g>
   </g>
   <g>
   </g>
   <g>
   </g>
  </g>
  <path class="fil1" d="M2.31435 1.80839l0.423459 0 -0.90412 -1.80839 -0.90422 1.80839 0.423409 0 0 1.35598 0.961471 0 0 -1.35598zm-0.811468 1.20598l0.661465 0 0 -1.35598 0.330757 0 -0.661415 -1.32298 0 0 -0.661515 1.32298 0.330707 0 0 1.35598z"/>
 </g>
</svg>
